PathFileType	4	(X/Y/Z)	C:\Users\Biomechanik\SynologyDrive\AlexP\Athlete_03\Athlete_3_22_07_06\sq_85_EMG\marker_experimental.trc
DataRate	CameraRate	NumFrames	NumMarkers	Units	OrigDataRate	OrigDataStartFrame	OrigNumFrames
200.000000	200.000000	4	58	mm	200.000000	0	1544
Frame#	Time	BL			BR			GLAB			RFHD			LFHD			C7			T6			SPINMOL			SPINM2			SPINM3			T12			BELTOL			BELT2			BELT3			SACROL			SACR2			SACR3			LTHOL			LTH2			LTH3			LSHAOL			LSHA2			LSHA3			LHEE			LTOE			LM5			RTHOL			RTH2			RTH3			RSHAOL			RSHA2			RSHA3			RHEE			RTOE			RM5			STRN			XIPH			LACR			LUAOL			LUA2			LUA3			LLAOL			LLA2			LLA3			LWRU			RACR			RUAOL			RUA3			RLAOL			RLA2			RLA3			RWRU			USERMO0			USERMO1			USERMO2			USERMO3			USERMO4			USERMO5			
		X1	Y1	Z1	X2	Y2	Z2	X3	Y3	Z3	X4	Y4	Z4	X5	Y5	Z5	X6	Y6	Z6	X7	Y7	Z7	X8	Y8	Z8	X9	Y9	Z9	X10	Y10	Z10	X11	Y11	Z11	X12	Y12	Z12	X13	Y13	Z13	X14	Y14	Z14	X15	Y15	Z15	X16	Y16	Z16	X17	Y17	Z17	X18	Y18	Z18	X19	Y19	Z19	X20	Y20	Z20	X21	Y21	Z21	X22	Y22	Z22	X23	Y23	Z23	X24	Y24	Z24	X25	Y25	Z25	X26	Y26	Z26	X27	Y27	Z27	X28	Y28	Z28	X29	Y29	Z29	X30	Y30	Z30	X31	Y31	Z31	X32	Y32	Z32	X33	Y33	Z33	X34	Y34	Z34	X35	Y35	Z35	X36	Y36	Z36	X37	Y37	Z37	X38	Y38	Z38	X39	Y39	Z39	X40	Y40	Z40	X41	Y41	Z41	X42	Y42	Z42	X43	Y43	Z43	X44	Y44	Z44	X45	Y45	Z45	X46	Y46	Z46	X47	Y47	Z47	X48	Y48	Z48	X49	Y49	Z49	X50	Y50	Z50	X51	Y51	Z51	X52	Y52	Z52	X53	Y53	Z53	X54	Y54	Z54	X55	Y55	Z55	X56	Y56	Z56	X57	Y57	Z57	X58	Y58	Z58	

1	0	113.1429443359375	1248.000244140625	-2275.9765625	203.8007507324219	1299.957763671875	-56.30688095092766	540.4273681640625	1317.20703125	-1144.999267578125	499.3790283203125	1370.324340820312	-1072.616088867188	505.4656677246094	1362.826904296875	-1228.436401367188	278.0186462402344	1370.767578125	-1153.485961914062	103.4539337158203	1247.805419921875	-1154.350708007812	81.10472869873047	1217.729858398438	-1159.966918945312	47.06926345825195	1163.168334960938	-1112.48046875	56.93019104003906	1160.831909179688	-1161.41015625	41.08163833618164	1103.950805664062	-1160.550170898438	5.655471324920654	1067.7412109375	-1158.972290039062	-6.83812952041626	1008.898376464844	-1106.590576171875	-12.05719947814941	1008.211242675781	-1156.484741210938	-18.47495651245117	936.2807617187501	-1183.825927734375	-9.186692237854004	946.4941406250001	-1134.636474609375	-44.12387084960938	890.7948608398439	-1143.341430664062	105.3375549316406	721.0278930664064	-1406.753173828125	65.73596954345703	651.7884521484376	-1401.22265625	112.3982849121094	660.3433227539064	-1418.285400390625	93.45423889160156	325.8822021484376	-1509.21142578125	62.28583145141602	253.7564086914063	-1517.274169921875	108.6856231689453	268.4593505859376	-1527.707153320312	64.685546875	35.64207458496103	-1507.033203125	271.4625549316406	47.92319107055673	-1546.708862304688	212.5644683837891	27.17468452453623	-1644.955322265625	78.85250091552734	698.3836669921875	-906.7584228515625	118.2690277099609	635.7846069335938	-876.11279296875	72.26416778564453	637.2670288085938	-896.2416381835938	39.73247909545898	319.1984252929688	-818.4752807617188	84.47210693359375	261.7580871582032	-787.0774536132812	40.01591110229492	258.2984008789063	-810.0205078125	35.32942962646484	34.42493820190435	-841.1448364257812	229.8239593505859	45.03545761108403	-766.369384765625	164.2245025634766	36.89990997314457	-679.771728515625	345.3672790527344	1216.2392578125	-1162.819213867188	309.1085510253906	1069.965087890625	-1155.345703125	224.4627990722656	1314.883911132812	-1343.506713867188	83.96339416503906	1236.741577148438	-1359.202514648438	48.43048858642578	1199.235717773438	-1317.6708984375	45.39299392700195	1195.32275390625	-1368.250244140625	26.51308250427246	1160.460205078125	-1442.75390625	70.32899475097656	1172.228637695312	-1489.17919921875	70.99775695800781	1205.5703125	-1451.635131835938	120.9470672607422	1245.183837890625	-1505.580078125	243.1965637207031	1318.48095703125	-974.5861206054686	109.5725708007812	1225.42626953125	-934.9022827148436	51.4471435546875	1205.908935546875	-941.5308227539061	59.4316291809082	1192.969482421875	-860.0980834960936	109.6932067871094	1232.76416015625	-868.4911499023436	101.7367477416992	1217.942993164062	-820.2496337890624	138.4141540527344	1254.6279296875	-801.2138671874999	0	1.268372840682444e-18	-0.02071410045027733	0.009496060200035572	4.371860406586044e-19	-0.007139789871871471	0.007818710058927536	0.0009615839808247992	-0.01385959982872009	0.01058430038392544	2.486345347782619e-17	-0.4060510098934174	0	0	0	0	0	0	
2	0.005	113.1254272460938	1247.7890625	-2275.964599609375	203.6394958496094	1299.80908203125	-56.2999954223632	540.3556518554688	1317.19775390625	-1144.979736328125	499.2761535644531	1370.310913085938	-1072.605590820312	505.397216796875	1362.810424804688	-1228.431274414062	277.9469299316406	1370.704467773438	-1153.5419921875	103.3877716064453	1247.780029296875	-1154.375610351562	81.01651763916016	1217.719970703125	-1160.008422851562	46.95027923583984	1163.16650390625	-1112.53173828125	56.81919860839844	1160.83154296875	-1161.459228515625	40.95905303955078	1103.950805664062	-1160.606201171875	5.523468494415283	1067.740112304688	-1159.032104492188	-6.982295989990234	1008.895751953125	-1106.6552734375	-12.19340133666992	1008.210632324219	-1156.549072265625	-18.58479881286621	936.3397216796876	-1183.935302734375	-9.312129020690918	946.5267333984376	-1134.752075195312	-44.267578125	890.8442382812501	-1143.4794921875	105.3332901000977	721.0460815429689	-1406.852905273438	65.71309661865234	651.8150024414064	-1401.35302734375	112.3923950195312	660.3598632812501	-1418.382934570312	93.46611022949219	325.8898315429689	-1509.294921875	62.30337905883789	253.760238647461	-1517.359252929688	108.7091369628906	268.4612731933595	-1527.769165039062	64.71380615234375	35.65289306640634	-1507.007934570312	271.4622192382812	47.91831970214853	-1546.725952148438	212.5657501220703	27.15218353271494	-1644.96484375	79.01078033447266	698.35986328125	-906.7916259765625	118.4840240478516	635.7883911132812	-876.189697265625	72.45319366455078	637.247802734375	-896.2608032226562	39.93690490722656	319.2650146484376	-818.3158569335938	84.66814422607422	261.7809753417969	-786.9998779296875	40.16226196289062	258.3625488281251	-809.8593139648438	35.24290084838867	34.39697647094732	-841.0512084960938	229.8187408447266	45.07515335083013	-766.3616943359375	164.2004089355469	36.88576507568364	-679.7674560546875	345.294189453125	1216.147338867188	-1162.840942382812	308.9959106445312	1069.889770507812	-1155.373779296875	224.3873596191406	1314.82275390625	-1343.517333984375	83.88431549072266	1236.67333984375	-1359.243896484375	48.34983062744141	1199.1787109375	-1317.710083007812	45.32886505126953	1195.249877929688	-1368.28173828125	26.46256256103516	1160.37841796875	-1442.773559570312	70.28507995605469	1172.154663085938	-1489.189697265625	70.94481658935547	1205.491333007812	-1451.640869140625	120.8994140625	1245.109008789062	-1505.573852539062	243.1142730712891	1318.407958984375	-974.6078491210936	109.479133605957	1225.378662109375	-934.9260253906249	51.37130737304688	1205.859741210938	-941.5661621093749	59.32667541503906	1192.920654296875	-860.1226806640624	109.5983428955078	1232.7080078125	-868.5128173828124	101.6277618408203	1217.882446289062	-820.2626953124999	138.3091430664062	1254.55810546875	-801.2208862304686	0.003600090043619275	0.001386060030199589	-0.03309269994497299	0.01232060045003891	9.981544485653554e-19	-0.01630109921097755	0.0110002001747489	0.0216860007494688	-0.01631960086524487	0.01175209973007441	0.005804149899631767	-0.4605129957199097	0	0.1783210039138794	1.091901233319375e-17	0.2345570027828217	0	0	
3	0.01	113.1083374023438	1247.544677734375	-2275.95166015625	203.4573516845703	1299.635375976562	-56.29307556152336	540.2720947265625	1317.183471679688	-1144.964477539062	499.1610717773438	1370.29248046875	-1072.598266601562	505.3144836425781	1362.788330078125	-1228.43017578125	277.8604431152344	1370.625854492188	-1153.601196289062	103.3087310791016	1247.75	-1154.40234375	80.91360473632812	1217.70703125	-1160.051147460938	46.81409072875977	1163.162353515625	-1112.584838867188	56.69038009643555	1160.829345703125	-1161.509887695312	40.81594848632812	1103.949340820312	-1160.6650390625	5.370084762573242	1067.736328125	-1159.09521484375	-7.146129131317139	1008.888000488281	-1106.725341796875	-12.35097312927246	1008.207153320313	-1156.618896484375	-18.71662139892578	936.3974609375001	-1184.061889648438	-9.458582878112793	946.5532836914064	-1134.883544921875	-44.43046569824219	890.8873901367189	-1143.639282226562	105.3279495239258	721.0708007812501	-1406.977172851562	65.68904876708984	651.8476562500001	-1401.51318359375	112.3866500854492	660.3832397460939	-1418.506103515625	93.48708343505859	325.9003295898439	-1509.4013671875	62.32936477661133	253.7666625976563	-1517.464965820312	108.7424697875977	268.4642639160157	-1527.848388671875	64.74715423583984	35.66600799560556	-1506.979125976562	271.4617309570312	47.91308975219736	-1546.7470703125	212.5670318603516	27.12478828430186	-1644.976806640625	79.21273803710938	698.3374633789062	-906.832763671875	118.7505645751953	635.7949829101562	-876.2872314453125	72.68797302246094	637.2308959960938	-896.2860717773438	40.16743087768555	319.3435363769532	-818.1365966796875	84.88473510742188	261.8060913085938	-786.9116821289062	40.32564163208008	258.4365234375001	-809.681884765625	35.13885879516602	34.36370086669927	-840.9397583007812	229.81103515625	45.1245841979981	-766.3513793945312	164.1722412109375	36.86950683593754	-679.7626953125	345.2085266113281	1216.0390625	-1162.864379882812	308.8642883300781	1069.798217773438	-1155.405883789062	224.2997589111328	1314.7490234375	-1343.529541015625	83.79427337646484	1236.593994140625	-1359.29296875	48.25373458862305	1199.11376953125	-1317.757080078125	45.25297546386719	1195.166015625	-1368.319946289062	26.40225219726562	1160.283813476562	-1442.797607421875	70.23307037353516	1172.067749023438	-1489.202758789062	70.88277435302734	1205.399169921875	-1451.64892578125	120.8440322875977	1245.020385742188	-1505.567504882812	243.0196990966797	1318.320556640625	-974.6301879882811	109.3729476928711	1225.31982421875	-934.9516601562499	51.28440475463867	1205.799560546875	-941.6047363281249	59.20713424682617	1192.860229492188	-860.1489257812499	109.4900588989258	1232.639038085938	-868.5364990234374	101.5037002563477	1217.8095703125	-820.2766723632811	138.1894378662109	1254.474975585938	-801.2287597656249	0.0103302001953125	0.002964700106531384	-0.04548810049891472	0.01506370026618242	0.005367259960621597	-0.02520539984107018	0.01422979962080717	0.04116449877619743	-0.01879220083355903	0.01280010025948286	0.04020629823207859	-0.5136489868164062	0.05776780098676682	0.5798460245132446	3.550532889592314e-17	0.6449170112609863	0	0	
4	0.015	113.0926818847656	1247.268798828125	-2275.938720703125	203.2566375732422	1299.437133789062	-56.28647613525383	540.1768798828125	1317.1630859375	-1144.955688476562	499.0355224609375	1370.268310546875	-1072.595336914062	505.2169189453125	1362.759643554688	-1228.4345703125	277.7588500976562	1370.53125	-1153.661376953125	103.216423034668	1247.715454101562	-1154.43017578125	80.79637145996094	1217.690795898438	-1160.093383789062	46.66203689575195	1163.155639648438	-1112.63720703125	56.54445266723633	1160.82470703125	-1161.560180664062	40.6529541015625	1103.945922851562	-1160.724609375	5.196126937866211	1067.729125976562	-1159.159301757812	-7.327690124511719	1008.873779296875	-1106.798950195312	-12.52890110015869	1008.200012207031	-1156.692016601562	-18.87059593200684	936.4504394531251	-1184.203979492188	-9.625609397888184	946.5702514648439	-1135.029052734375	-44.61030960083008	890.9195556640626	-1143.819213867188	105.3207855224609	721.1027832031251	-1407.128051757812	65.66427612304688	651.8865966796876	-1401.704223632812	112.3808822631836	660.4144897460939	-1418.656982421875	93.51886749267578	325.9139709472657	-1509.5322265625	62.36508178710938	253.7760620117188	-1517.592163085938	108.7869110107422	268.4684448242189	-1527.9462890625	64.78557586669922	35.68151092529306	-1506.947265625	271.4611206054688	47.90764617919931	-1546.772094726562	212.5682067871094	27.09233474731455	-1644.991455078125	79.46229553222656	698.3181762695312	-906.8824462890625	119.0719299316406	635.8050537109375	-876.4071044921875	72.97145843505859	637.2178955078125	-896.3182983398438	40.4211311340332	319.4337463378907	-817.9404296875	85.11730194091797	261.8328247070313	-786.8137817382812	40.50302505493164	258.5198974609376	-809.49169921875	35.01670837402344	34.32506561279302	-840.810302734375	229.8003540039062	45.18455123901372	-766.3380737304688	164.1401824951172	36.85137176513676	-679.7576293945312	345.1105651855469	1215.91455078125	-1162.888916015625	308.7142944335938	1069.690307617188	-1155.441528320312	224.2005004882812	1314.662475585938	-1343.543212890625	83.69377136230469	1236.504150390625	-1359.349975585938	48.14207077026367	1199.041870117188	-1317.812133789062	45.16522598266602	1195.072265625	-1368.364868164062	26.33187103271484	1160.177368164062	-1442.826171875	70.1728515625	1171.968017578125	-1489.218505859375	70.81173706054688	1205.294311523438	-1451.659545898438	120.7811889648438	1244.917602539062	-1505.561401367188	242.9135437011719	1318.218505859375	-974.6523437499999	109.2551727294922	1225.249267578125	-934.9782714843749	51.18719482421875	1205.727783203125	-941.6453857421874	59.07433700561523	1192.78759765625	-860.1759033203124	109.3695220947266	1232.556396484375	-868.5616455078124	101.3659896850586	1217.723876953125	-820.2911376953124	138.0562896728516	1254.378295898438	-801.2373657226561	0.01681059971451759	0.00443531991913915	-0.05765650048851967	0.01768450066447258	0.01597589999437333	-0.03367850184440613	0.01743119955062866	0.05897919833660126	-0.02121300064027309	0.01371410023421049	0.07226970046758655	-0.5637940168380737	0.1192879974842072	0.9509810209274292	-0.06122529879212374	1.027850031852722	0	0	
